<svg width="20" height="20" viewBox="0 0 20 20" fill="none" xmlns="http://www.w3.org/2000/svg">
<path d="M17.4501 14.5225L17.796 15.188L17.799 15.1865L17.8019 15.1849L17.4501 14.5225ZM16.6841 14.8624L16.423 14.1593L16.4224 14.1595L16.6841 14.8624ZM14.0899 15.325L14.0924 14.575H14.0899V15.325ZM7.6945 9.95338L6.9445 9.94513V9.95338H7.6945ZM8.87962 7.97963L8.56125 7.30063L8.55462 7.30375L8.54812 7.30688L8.87962 7.97963ZM13.0204 18.7446L13.241 19.4615L13.2532 19.4578L13.2654 19.4535L13.0204 18.7446ZM17.8331 14.9274L18.4675 15.3275L18.4714 15.3211L18.4752 15.3148L17.8331 14.9274ZM8.38812 18.1953L7.99237 18.8323L8.17425 18.9453H8.38825L8.38812 18.1953ZM6.74787 16.6553L7.35862 16.22L7.35612 16.2165L7.35362 16.213L6.74787 16.6553ZM10.0069 7.6905L9.99637 8.4405H10.0012L10.0069 7.6905ZM11.8641 8.63038L12.466 8.18288L12.4655 8.18225L12.4649 8.18138L11.8641 8.63038ZM1.63162 13.9298L0.95125 14.2454L0.952 14.2469L0.95275 14.2484L1.63162 13.9298ZM12.9336 18.7736L13.1712 19.485L12.7076 18.0585L12.9336 18.7736ZM8.3955 18.1953L8.7935 17.5596L8.611 17.4453H8.3955V18.1953ZM14.863 13.0621V13.8121H14.8635L14.863 13.0621ZM17.0526 12.4621L16.6739 11.8148L16.6722 11.8156L16.6707 11.8166L17.0526 12.4621ZM19.2494 8.63763L18.4995 8.62763L18.4994 8.632V8.63638L19.2494 8.63763ZM18.4329 5.46375L19.1037 5.1285L19.1017 5.12463L19.0999 5.12075L18.4329 5.46375ZM0.75 9.87375L0 9.86363L1.5 9.88438L0.75 9.87375ZM9.56625 5.82525L9.21775 6.48938L9.225 6.49313L9.23225 6.49688L9.56625 5.82525ZM11.7991 7.9435L11.146 8.31225L11.1475 8.31488L11.149 8.31738L11.7991 7.94363V7.9435ZM17.1041 13.8571C16.8835 13.9718 16.6561 14.0727 16.423 14.1593L16.9451 15.5654C17.2363 15.4573 17.5204 15.3313 17.796 15.188L17.1041 13.8571ZM16.4224 14.1595C15.677 14.437 14.8877 14.5778 14.0924 14.575L14.0872 16.075C15.063 16.0784 16.0314 15.9057 16.9457 15.5651L16.4224 14.1595ZM14.0899 14.575C10.9435 14.575 8.4445 12.4318 8.4445 9.95338H6.9445C6.9445 13.519 10.4001 16.075 14.0899 16.075V14.575ZM8.4445 9.96163C8.44744 9.69016 8.52265 9.42438 8.66237 9.19163L7.37637 8.4195C7.09951 8.88067 6.95036 9.40726 6.9445 9.94513L8.4445 9.96163ZM8.66237 9.19163C8.80205 8.95907 9.00117 8.76792 9.23925 8.63788L8.52 7.32163C8.04801 7.57952 7.65326 7.95839 7.37637 8.4195L8.6625 9.19175L8.66237 9.19163ZM13.147 19.4904L13.241 19.4615L12.7996 18.0279L12.7057 18.0567L13.147 19.4904ZM13.2654 19.4535C15.4178 18.7092 17.2526 17.254 18.4675 15.3275L17.1986 14.5274C16.1656 16.1655 14.6055 17.4029 12.7752 18.0359L13.2654 19.4535ZM18.4752 15.3148C18.5926 15.1202 18.643 14.8925 18.6186 14.6666L17.1272 14.8274C17.1165 14.7272 17.1389 14.6263 17.1909 14.54L18.4752 15.3148ZM18.6186 14.6666C18.5943 14.4406 18.4966 14.2289 18.3404 14.0637L17.2507 15.0946C17.1815 15.0214 17.1381 14.9276 17.1272 14.8274L18.6186 14.6666ZM18.3404 14.0637C18.1842 13.8986 17.9781 13.7893 17.7537 13.7525L17.511 15.2328C17.4115 15.2164 17.32 15.1679 17.2507 15.0946L18.3404 14.0637ZM17.7537 13.7525C17.5294 13.7157 17.2991 13.7535 17.0982 13.8601L17.8019 15.1849C17.7128 15.2322 17.6106 15.249 17.511 15.2328L17.7537 13.7525ZM8.78412 17.5581C8.22511 17.2108 7.74058 16.756 7.35862 16.22L6.13712 17.0906C6.63428 17.7881 7.26487 18.3801 7.99237 18.8323L8.78412 17.5581ZM7.35362 16.213C6.91613 15.6139 6.61488 14.9263 6.47125 14.1985L4.99975 14.489C5.18575 15.4315 5.5757 16.3218 6.14225 17.0976L7.35362 16.213ZM6.47125 14.1985C6.32761 13.4706 6.34494 12.7201 6.522 11.9996L5.06525 11.6416C4.83604 12.5746 4.81368 13.5465 4.99975 14.489L6.47125 14.1985ZM6.522 11.9996C6.69897 11.2792 7.03141 10.6063 7.496 10.028L6.32675 9.0885C5.72507 9.83735 5.29451 10.7088 5.06525 11.6416L6.522 11.9996ZM7.496 10.028C7.96052 9.44979 8.54597 8.98026 9.21125 8.65238L8.54825 7.307C7.68667 7.73164 6.92835 8.3397 6.32675 9.0885L7.496 10.028ZM9.19812 8.65875C9.43125 8.54938 9.6735 8.436 9.99637 8.4405L10.0175 6.94063C9.31425 6.93063 8.7905 7.19313 8.56125 7.30063L9.19812 8.65875ZM10.0012 8.4405C10.2466 8.44238 10.488 8.501 10.707 8.61175L11.3842 7.27338C10.9589 7.05811 10.4895 6.94418 10.0127 6.9405L10.0012 8.4405ZM10.707 8.61175C10.926 8.72257 11.1164 8.88258 11.2632 9.07925L12.4649 8.18138C12.1795 7.79945 11.8097 7.48872 11.3842 7.2735L10.707 8.61175ZM11.2621 9.07775C11.4584 9.34179 11.566 9.66125 11.5694 9.99025L13.0694 9.97438C13.0625 9.3285 12.8513 8.70127 12.466 8.18288L11.2621 9.07775ZM0.00725007 9.87438C-0.00637548 11.3834 0.31609 12.8765 0.95125 14.2454L2.312 13.614C1.77051 12.447 1.49561 11.1742 1.50725 9.88775L0.00725007 9.87438ZM0.95275 14.2484C1.99399 16.467 3.81364 18.2261 6.06625 19.1916L6.65712 17.813C4.74235 16.9922 3.1956 15.4969 2.3105 13.611L0.95275 14.2484ZM6.06625 19.1916C8.31856 20.157 10.847 20.2614 13.1712 19.485L12.696 18.0623C10.7206 18.7221 8.57145 18.6334 6.65712 17.813L6.06625 19.1916ZM12.7076 18.0585C12.058 18.2637 11.3716 18.3254 10.6959 18.2393L10.5062 19.7272C11.3975 19.8409 12.3027 19.7595 13.1596 19.4888L12.7076 18.0585ZM10.6959 18.2393C10.0201 18.1531 9.37089 17.9212 8.7935 17.5596L7.99737 18.8309C8.75891 19.3078 9.61493 19.6136 10.5062 19.7272L10.6959 18.2393ZM8.3955 17.4453H8.38825V18.9453H8.3955V17.4453ZM11.5122 13.1399C12.1912 13.6015 13.0874 13.7476 13.7184 13.7988C14.3589 13.8505 14.9384 13.8121 14.863 13.8121V12.3121C14.7812 12.3121 14.4066 12.3495 13.8394 12.3036C13.2626 12.257 12.6975 12.1319 12.3555 11.8994L11.5122 13.1399ZM14.8635 13.8121C15.7681 13.8115 16.656 13.5682 17.4345 13.1075L16.6707 11.8166C16.1232 12.1406 15.4987 12.3117 14.8625 12.3121L14.8635 13.8121ZM17.4314 13.1094C18.2119 12.6527 18.8594 11.9999 19.3097 11.2158L18.0091 10.4686C17.6889 11.026 17.2286 11.4901 16.6739 11.8148L17.4314 13.1094ZM19.3097 11.2158C19.7603 10.4315 19.998 9.54317 19.9994 8.63875L18.4994 8.63625C18.4984 9.27933 18.3294 9.91099 18.0091 10.4686L19.3097 11.2158ZM19.9994 8.64763C20.0237 6.82888 19.3426 5.60638 19.1037 5.1285L17.762 5.799C18.0001 6.2755 18.5185 7.20738 18.4995 8.6275L19.9994 8.64763ZM19.0999 5.12075C17.4082 1.83125 13.8159 5.13221e-07 9.99975 5.13221e-07V1.5C13.3666 1.5 16.3791 3.11 17.7659 5.80675L19.0999 5.12075ZM9.99975 5.13221e-07C7.37152 -0.000223557 4.84904 1.03451 2.978 2.88025L4.03137 3.94825C5.62165 2.3794 7.76586 1.49987 9.99975 1.5V5.13221e-07ZM2.978 2.88025C1.10664 4.72638 0.0368199 7.23479 0 9.86325L1.49975 9.8845C1.53104 7.65004 2.44052 5.51764 4.03137 3.94825L2.978 2.88025ZM1.5 9.88413C1.52887 7.777 3.68625 5.85225 6.53125 5.85225V4.35225C3.1325 4.35225 0.0436251 6.69313 0.000250101 9.8635L1.5 9.88413ZM6.53125 5.85225C6.75412 5.85225 8.04737 5.8755 9.21775 6.48938L9.91462 5.161C8.41125 4.37238 6.81412 4.35225 6.53125 4.35225V5.85225ZM9.23225 6.49688C10.0373 6.89716 10.704 7.52953 11.1461 8.31238L12.4522 7.57475C11.8626 6.53073 10.9736 5.6874 9.9 5.15363L9.23225 6.49688ZM11.1491 8.3175C11.4929 8.91525 11.5695 9.73475 11.5695 10.0763H13.0695C13.0695 9.637 12.9871 8.5045 12.4494 7.56963L11.1491 8.3175ZM11.5695 10.0763C11.5695 10.0756 11.5695 10.0805 11.5687 10.0919C11.5676 10.1068 11.5662 10.1217 11.5645 10.1366C11.5602 10.1748 11.5532 10.2234 11.5431 10.2816C11.5181 10.4209 11.4878 10.5591 11.4522 10.696C11.3714 11.0114 11.2629 11.3391 11.1515 11.5778L12.5105 12.2125C12.675 11.8604 12.8109 11.4363 12.9051 11.0689C12.9945 10.7208 13.0695 10.3351 13.0695 10.0763H11.5695ZM12.3555 11.8994C12.4055 11.9334 12.4467 11.9794 12.4749 12.0298C12.5017 12.0779 12.5116 12.1203 12.515 12.1475C12.5182 12.1744 12.516 12.1916 12.5147 12.1986C12.514 12.2034 12.5125 12.2081 12.5105 12.2125L11.1515 11.5778C10.9831 11.9381 10.8647 12.6998 11.5122 13.1399L12.3555 11.8994Z" fill="current"/>
</svg>
