<svg width="24" height="24" viewBox="0 0 24 24" fill="none" xmlns="http://www.w3.org/2000/svg">
    <g clip-path="url(#clip0_1_11)">
        <path
            d="M12 0C8.8174 0 5.76516 1.26428 3.51472 3.51472C1.26428 5.76516 0 8.8174 0 12C0 15.1826 1.26428 18.2348 3.51472 20.4853C5.76516 22.7357 8.8174 24 12 24C15.1826 24 18.2348 22.7357 20.4853 20.4853C22.7357 18.2348 24 15.1826 24 12C24 8.8174 22.7357 5.76516 20.4853 3.51472C18.2348 1.26428 15.1826 0 12 0ZM11.996 0.953H12.002C12.065 0.953 12.115 1.003 12.115 1.066V2.908C12.115 2.971 12.065 3.021 12.002 3.021H11.996C11.9811 3.02113 11.9664 3.0183 11.9526 3.01267C11.9388 3.00704 11.9263 2.99872 11.9158 2.9882C11.9053 2.97768 11.897 2.96517 11.8913 2.9514C11.8857 2.93763 11.8829 2.92288 11.883 2.908V1.066C11.883 1.003 11.933 0.953 11.996 0.953ZM11.055 0.994C11.111 0.995 11.159 1.04 11.165 1.098L11.242 2.016C11.2442 2.04524 11.2349 2.07419 11.216 2.09663C11.1971 2.11907 11.1702 2.1332 11.141 2.136H11.131C11.1165 2.13737 11.102 2.13587 11.0881 2.13158C11.0742 2.12729 11.0613 2.12029 11.0502 2.111C11.039 2.1017 11.0298 2.09029 11.0231 2.07742C11.0164 2.06454 11.0123 2.05047 11.011 2.036L10.931 1.117C10.9288 1.0876 10.9383 1.05851 10.9573 1.03604C10.9764 1.01358 11.0036 0.999549 11.033 0.997H11.043L11.055 0.994ZM12.947 0.994H12.965C12.9946 0.99655 13.0221 1.01069 13.0414 1.03334C13.0606 1.05599 13.0702 1.08533 13.068 1.115L12.988 2.035C12.9869 2.04959 12.9829 2.06382 12.9762 2.07686C12.9695 2.0899 12.9604 2.10149 12.9492 2.11097C12.9381 2.12045 12.9252 2.12763 12.9112 2.1321C12.8973 2.13656 12.8826 2.13823 12.868 2.137H12.859C12.8444 2.13574 12.8302 2.13161 12.8172 2.12484C12.8042 2.11807 12.7927 2.10879 12.7833 2.09754C12.7739 2.08629 12.7668 2.07329 12.7625 2.0593C12.7582 2.0453 12.7566 2.03059 12.758 2.016L12.836 1.096C12.8385 1.06823 12.8512 1.04239 12.8718 1.02353C12.8923 1.00467 12.9191 0.994138 12.947 0.994ZM10.109 1.117C10.1346 1.11759 10.1592 1.1271 10.1786 1.1439C10.1979 1.16069 10.2108 1.18372 10.215 1.209L10.535 3.027C10.545 3.087 10.505 3.146 10.445 3.157L10.435 3.158C10.4061 3.16294 10.3764 3.15625 10.3524 3.13939C10.3285 3.12253 10.3121 3.09686 10.307 3.068L9.987 1.25C9.98441 1.23562 9.98468 1.22086 9.98781 1.20659C9.99093 1.19231 9.99685 1.17879 10.0052 1.16681C10.0136 1.15482 10.0242 1.14461 10.0365 1.13674C10.0489 1.12888 10.0626 1.12353 10.077 1.121L10.087 1.119C10.0942 1.11755 10.1016 1.11688 10.109 1.117ZM13.893 1.119H13.914L13.922 1.121C13.983 1.131 14.024 1.191 14.014 1.252L13.694 3.066C13.683 3.128 13.624 3.167 13.562 3.156H13.557C13.5276 3.15087 13.5014 3.13432 13.4842 3.10996C13.467 3.08561 13.4601 3.05543 13.465 3.026L13.785 1.211C13.7894 1.18547 13.8027 1.1623 13.8224 1.14549C13.8421 1.12869 13.8671 1.11932 13.893 1.119ZM9.178 1.322C9.226 1.324 9.268 1.357 9.281 1.406L9.52 2.299C9.52409 2.31331 9.52528 2.3283 9.5235 2.34308C9.52173 2.35786 9.51703 2.37214 9.50967 2.38508C9.50232 2.39802 9.49246 2.40937 9.48067 2.41845C9.46887 2.42754 9.45539 2.43419 9.441 2.438L9.436 2.439C9.42155 2.44294 9.40647 2.444 9.39162 2.44211C9.37677 2.44023 9.36243 2.43543 9.34943 2.428C9.33643 2.42057 9.32502 2.41065 9.31585 2.39882C9.30668 2.38698 9.29994 2.37345 9.296 2.359L9.059 1.465C9.05492 1.45088 9.05371 1.43609 9.05544 1.4215C9.05717 1.4069 9.06181 1.39281 9.06908 1.38004C9.07635 1.36727 9.08611 1.35608 9.09778 1.34714C9.10944 1.33821 9.12278 1.3317 9.137 1.328L9.143 1.326C9.15441 1.32299 9.1662 1.32165 9.178 1.322ZM14.822 1.322C14.8331 1.32165 14.8443 1.323 14.855 1.326L14.861 1.328C14.921 1.344 14.958 1.407 14.941 1.467L14.701 2.359C14.6973 2.37326 14.6908 2.38665 14.6819 2.39839C14.673 2.41014 14.6618 2.42001 14.6491 2.42744C14.6364 2.43487 14.6223 2.43972 14.6077 2.4417C14.5931 2.44369 14.5782 2.44277 14.564 2.439L14.559 2.437C14.5303 2.42903 14.5058 2.41012 14.4908 2.38432C14.4759 2.35853 14.4716 2.3279 14.479 2.299L14.719 1.406C14.725 1.38284 14.7382 1.36219 14.7567 1.34707C14.7752 1.33196 14.7981 1.32317 14.822 1.322ZM8.26 1.607C8.28326 1.60628 8.30616 1.61296 8.32538 1.62608C8.34461 1.6392 8.35918 1.65808 8.367 1.68L9 3.42C9.00509 3.43332 9.00747 3.44751 9.007 3.46176C9.00653 3.47601 9.00321 3.49002 8.99725 3.50297C8.99129 3.51592 8.9828 3.52754 8.97228 3.53717C8.96176 3.54679 8.94943 3.55421 8.936 3.559L8.924 3.564C8.89668 3.57366 8.86664 3.57215 8.84043 3.55979C8.81421 3.54743 8.79394 3.52523 8.784 3.498L8.15 1.76C8.14029 1.7328 8.14166 1.70288 8.15382 1.67669C8.16598 1.65049 8.18796 1.63013 8.215 1.62L8.229 1.615C8.23855 1.61088 8.24866 1.60818 8.259 1.607H8.26ZM15.729 1.609C15.743 1.609 15.757 1.61 15.771 1.615L15.783 1.621C15.84 1.641 15.87 1.703 15.85 1.76L15.217 3.498C15.2071 3.52523 15.1868 3.54743 15.1606 3.55979C15.1344 3.57215 15.1043 3.57366 15.077 3.564L15.064 3.561C15.0369 3.55068 15.015 3.53007 15.003 3.50367C14.991 3.47726 14.9899 3.44719 15 3.42L15.633 1.682C15.6399 1.66166 15.6528 1.64386 15.6699 1.63085C15.687 1.61785 15.7076 1.61024 15.729 1.609ZM7.377 1.975C7.39884 1.97426 7.42041 1.97993 7.43907 1.9913C7.45773 2.00267 7.47265 2.01925 7.482 2.039L7.875 2.877C7.88724 2.90393 7.88832 2.93461 7.87801 2.96234C7.86771 2.99007 7.84685 3.01259 7.82 3.025L7.812 3.029C7.79887 3.03505 7.78467 3.03845 7.77023 3.03901C7.75578 3.03957 7.74137 3.03728 7.72781 3.03227C7.71425 3.02725 7.70181 3.01961 7.6912 3.00979C7.6806 2.99996 7.67203 2.98814 7.666 2.975L7.271 2.137C7.26479 2.12361 7.26128 2.10913 7.26068 2.09438C7.26009 2.07963 7.26241 2.06491 7.26752 2.05106C7.27263 2.03722 7.28043 2.02452 7.29047 2.0137C7.3005 2.00287 7.31258 1.99414 7.326 1.988L7.334 1.984C7.34751 1.9778 7.36214 1.97439 7.377 1.974V1.975ZM16.623 1.975C16.6379 1.97539 16.6525 1.9788 16.666 1.985L16.672 1.988C16.6854 1.99411 16.6975 2.00286 16.7075 2.01373C16.7175 2.0246 16.7251 2.03736 16.7301 2.05126C16.735 2.06516 16.7371 2.07992 16.7363 2.09465C16.7354 2.10938 16.7316 2.12378 16.725 2.137L16.334 2.975C16.3214 3.00168 16.2988 3.02231 16.2711 3.03242C16.2434 3.04253 16.2128 3.0413 16.186 3.029L16.18 3.027C16.1531 3.01459 16.1323 2.99207 16.122 2.96434C16.1117 2.93661 16.1128 2.90593 16.125 2.879L16.518 2.039C16.5274 2.01925 16.5423 2.00267 16.5609 1.9913C16.5796 1.97993 16.6012 1.97426 16.623 1.975ZM6.531 2.415C6.571 2.413 6.611 2.433 6.633 2.471L7.555 4.068C7.56253 4.08086 7.56745 4.09508 7.56947 4.10984C7.57149 4.12461 7.57056 4.13962 7.56675 4.15403C7.56294 4.16844 7.55632 4.18195 7.54726 4.19378C7.53821 4.20562 7.52691 4.21555 7.514 4.223L7.508 4.225C7.48212 4.2399 7.4514 4.24395 7.42254 4.23627C7.39369 4.22859 7.36904 4.2098 7.354 4.184L6.432 2.586C6.41701 2.56024 6.41281 2.52961 6.4203 2.50077C6.42779 2.47192 6.44637 2.44721 6.472 2.432L6.479 2.43C6.49472 2.4204 6.5126 2.4159 6.531 2.415ZM17.471 2.416C17.489 2.416 17.506 2.42 17.523 2.43L17.527 2.432C17.5399 2.43955 17.5513 2.44957 17.5603 2.46149C17.5694 2.47342 17.576 2.48701 17.5798 2.5015C17.5836 2.51599 17.5846 2.53109 17.5825 2.54593C17.5805 2.56077 17.5756 2.57507 17.568 2.588L16.645 4.184C16.6374 4.19699 16.6272 4.20834 16.6152 4.21739C16.6032 4.22645 16.5894 4.23302 16.5748 4.23674C16.5602 4.24046 16.5451 4.24125 16.5301 4.23906C16.5152 4.23688 16.5009 4.23176 16.488 4.224L16.484 4.223C16.4711 4.21556 16.4598 4.20562 16.4507 4.19376C16.4417 4.18189 16.4351 4.16835 16.4314 4.15391C16.4277 4.13947 16.4269 4.12444 16.429 4.10969C16.4312 4.09493 16.4363 4.08076 16.444 4.068L17.369 2.473C17.3792 2.45511 17.3941 2.44034 17.4121 2.43029C17.43 2.42025 17.4504 2.4153 17.471 2.416ZM5.729 2.93C5.74718 2.92954 5.76519 2.93359 5.78142 2.94179C5.79765 2.94999 5.81159 2.96209 5.822 2.977L6.354 3.73C6.36262 3.74227 6.36874 3.75612 6.372 3.77076C6.37526 3.7854 6.3756 3.80054 6.373 3.81531C6.37039 3.83008 6.3649 3.84419 6.35684 3.85684C6.34878 3.86948 6.3383 3.88041 6.326 3.889L6.322 3.891C6.29729 3.9081 6.26683 3.91475 6.23724 3.90951C6.20765 3.90426 6.18133 3.88755 6.164 3.863L5.633 3.111C5.6158 3.08641 5.60899 3.05603 5.61404 3.02645C5.6191 2.99687 5.63561 2.97048 5.66 2.953L5.666 2.951C5.68442 2.93785 5.70637 2.93053 5.729 2.93ZM18.271 2.93C18.2936 2.93005 18.3155 2.93703 18.334 2.95L18.34 2.953C18.3643 2.97012 18.3807 2.99616 18.3858 3.02541C18.3909 3.05466 18.3841 3.08473 18.367 3.109L17.836 3.865C17.8276 3.87709 17.8169 3.8874 17.8045 3.89536C17.7921 3.90331 17.7783 3.90874 17.7638 3.91134C17.7493 3.91394 17.7345 3.91366 17.7201 3.91051C17.7057 3.90736 17.6921 3.90141 17.68 3.893L17.674 3.889C17.6618 3.8806 17.6513 3.86985 17.6433 3.85738C17.6353 3.84491 17.6298 3.83096 17.6272 3.81636C17.6246 3.80175 17.6249 3.78677 17.6281 3.77229C17.6314 3.75781 17.6374 3.74411 17.646 3.732L18.178 2.977C18.1884 2.96209 18.2024 2.94999 18.2186 2.94179C18.2348 2.93359 18.2528 2.92954 18.271 2.93ZM19.018 3.508C19.0325 3.50701 19.047 3.50889 19.0607 3.51352C19.0744 3.51815 19.0871 3.52545 19.098 3.535L19.104 3.539C19.151 3.579 19.157 3.65 19.117 3.697L17.932 5.11C17.9229 5.12154 17.9115 5.13113 17.8986 5.13821C17.8857 5.14528 17.8715 5.1497 17.8569 5.15119C17.8422 5.15268 17.8275 5.15122 17.8134 5.14689C17.7993 5.14257 17.7863 5.13546 17.775 5.126L17.77 5.12C17.7588 5.11073 17.7495 5.09933 17.7427 5.08644C17.7359 5.07355 17.7317 5.05944 17.7304 5.04493C17.7291 5.03041 17.7307 5.01579 17.7351 5.00189C17.7395 4.988 17.7466 4.97512 17.756 4.964L18.941 3.55C18.9602 3.52667 18.9879 3.51192 19.018 3.509V3.508ZM4.984 3.51C4.9988 3.51097 5.01325 3.51493 5.02648 3.52163C5.03972 3.52833 5.05146 3.53764 5.061 3.549L6.244 4.96C6.25348 4.97128 6.26063 4.98433 6.26506 4.99838C6.26948 5.01244 6.27109 5.02723 6.26979 5.04191C6.26849 5.05658 6.2643 5.07086 6.25748 5.08392C6.25065 5.09698 6.24131 5.10856 6.23 5.118L6.227 5.122C6.21569 5.13163 6.20258 5.13891 6.18843 5.14343C6.17427 5.14794 6.15937 5.14959 6.14457 5.14829C6.12977 5.14699 6.11538 5.14276 6.10224 5.13584C6.08909 5.12892 6.07745 5.11946 6.068 5.108L4.883 3.697C4.87347 3.68578 4.86624 3.67279 4.86173 3.65877C4.85723 3.64475 4.85553 3.62998 4.85674 3.6153C4.85794 3.60063 4.86203 3.58634 4.86877 3.57324C4.87551 3.56015 4.88476 3.54851 4.896 3.539L4.902 3.535C4.91333 3.5256 4.92641 3.51856 4.94049 3.51426C4.95457 3.50997 4.96936 3.50852 4.984 3.51ZM4.27 4.15C4.297 4.15 4.325 4.16 4.346 4.182L5.004 4.842C5.01404 4.85195 5.02201 4.86379 5.02744 4.87683C5.03288 4.88988 5.03568 4.90387 5.03568 4.918C5.03568 4.93213 5.03288 4.94612 5.02744 4.95917C5.02201 4.97221 5.01404 4.98405 5.004 4.994L4.994 5.004C4.98405 5.01404 4.97221 5.02201 4.95917 5.02744C4.94612 5.03288 4.93213 5.03568 4.918 5.03568C4.90387 5.03568 4.88988 5.03288 4.87683 5.02744C4.86379 5.02201 4.85195 5.01404 4.842 5.004L4.182 4.346C4.16154 4.32539 4.15006 4.29754 4.15006 4.2685C4.15006 4.23946 4.16154 4.21161 4.182 4.191L4.192 4.181C4.2131 4.16122 4.24108 4.14946 4.27 4.15ZM19.732 4.15C19.76 4.15 19.787 4.16 19.809 4.182L19.816 4.189C19.8262 4.19914 19.8344 4.21121 19.8399 4.22451C19.8455 4.23781 19.8484 4.25208 19.8484 4.2665C19.8484 4.28092 19.8455 4.29519 19.8399 4.30849C19.8344 4.32179 19.8262 4.33386 19.816 4.344L19.158 5.004C19.1376 5.0244 19.1099 5.03585 19.081 5.03585C19.0521 5.03585 19.0244 5.0244 19.004 5.004L18.996 4.996C18.9756 4.97556 18.9641 4.94787 18.9641 4.919C18.9641 4.89013 18.9756 4.86244 18.996 4.842L19.654 4.182C19.6643 4.1718 19.6764 4.16372 19.6898 4.15823C19.7032 4.15274 19.7175 4.14994 19.732 4.15ZM20.439 4.81C20.477 4.81 20.51 4.83 20.531 4.885C20.5386 4.90469 20.5404 4.92612 20.5364 4.94682C20.5323 4.96751 20.5225 4.98664 20.508 5.002L12.902 13.082C9.818 15.106 6.753 17.122 3.68 19.132C3.602 19.183 3.51 19.214 3.469 19.104C3.46122 19.0842 3.45925 19.0626 3.46333 19.0417C3.4674 19.0208 3.47735 19.0014 3.492 18.986L11.086 10.906C14.17 8.883 17.247 6.867 20.32 4.857C20.3552 4.83135 20.3966 4.81548 20.44 4.811L20.439 4.81ZM3.615 4.855C3.62939 4.85382 3.64388 4.85551 3.65761 4.85997C3.67134 4.86444 3.68405 4.87158 3.695 4.881L5.111 6.068C5.1224 6.07727 5.13182 6.08874 5.13871 6.10171C5.1456 6.11469 5.14983 6.12891 5.15113 6.14355C5.15244 6.15818 5.1508 6.17293 5.14631 6.18692C5.14182 6.20091 5.13457 6.21386 5.125 6.225L5.119 6.23C5.10973 6.24125 5.09833 6.25054 5.08544 6.25734C5.07255 6.26415 5.05844 6.26832 5.04393 6.26962C5.02941 6.27092 5.01479 6.26933 5.00089 6.26493C4.987 6.26053 4.97412 6.25342 4.963 6.244L3.549 5.057C3.53778 5.04782 3.52851 5.0365 3.52172 5.0237C3.51493 5.0109 3.51076 4.99687 3.50946 4.98244C3.50816 4.96801 3.50974 4.95346 3.51413 4.93965C3.51851 4.92584 3.52561 4.91304 3.535 4.902L3.541 4.895C3.55003 4.88372 3.56123 4.87437 3.57395 4.8675C3.58666 4.86063 3.60062 4.85638 3.615 4.855ZM20.951 5.611C20.987 5.611 21.023 5.628 21.045 5.661L21.049 5.664C21.0661 5.68871 21.0728 5.71917 21.0675 5.74876C21.0623 5.77835 21.0455 5.80467 21.021 5.822L20.268 6.352C20.2559 6.36057 20.2422 6.36665 20.2277 6.36988C20.2132 6.37311 20.1983 6.37344 20.1836 6.37083C20.169 6.36823 20.1551 6.36275 20.1426 6.35471C20.1302 6.34667 20.1194 6.33623 20.111 6.324L20.107 6.32C20.0899 6.29529 20.0832 6.26483 20.0885 6.23524C20.0937 6.20565 20.1105 6.17933 20.135 6.162L20.889 5.632C20.9073 5.61939 20.9288 5.61144 20.951 5.611ZM3.047 5.613C3.067 5.613 3.089 5.62 3.107 5.633L3.867 6.164C3.917 6.199 3.927 6.267 3.893 6.316L3.887 6.326C3.87873 6.33783 3.86818 6.3479 3.85598 6.35563C3.84378 6.36335 3.83017 6.36857 3.81594 6.37099C3.8017 6.37341 3.78713 6.37298 3.77306 6.36972C3.759 6.36646 3.74572 6.36044 3.734 6.352L2.974 5.82C2.95055 5.80315 2.93474 5.77767 2.93005 5.74917C2.92536 5.72067 2.93218 5.69148 2.949 5.668L2.955 5.658C2.96541 5.64347 2.97927 5.63176 2.99533 5.6239C3.01138 5.61605 3.02914 5.6123 3.047 5.613ZM2.535 6.416C2.553 6.416 2.571 6.422 2.588 6.432L4.184 7.355C4.19675 7.36234 4.20792 7.37214 4.21685 7.38384C4.22578 7.39554 4.2323 7.40889 4.23602 7.42313C4.23974 7.43737 4.2406 7.4522 4.23853 7.46677C4.23647 7.48134 4.23153 7.49536 4.224 7.508L4.221 7.514C4.21366 7.52675 4.20386 7.53792 4.19216 7.54685C4.18046 7.55578 4.16711 7.5623 4.15287 7.56602C4.13863 7.56974 4.1238 7.5706 4.10923 7.56853C4.09466 7.56647 4.08064 7.56153 4.068 7.554L2.473 6.63C2.4603 6.62274 2.44915 6.61304 2.44021 6.60147C2.43127 6.58989 2.4247 6.57665 2.42089 6.56253C2.41708 6.5484 2.4161 6.53366 2.41801 6.51915C2.41991 6.50465 2.42467 6.49066 2.432 6.478L2.436 6.472C2.44604 6.45456 2.46068 6.44021 2.47831 6.43052C2.49594 6.42082 2.5159 6.41614 2.536 6.417L2.535 6.416ZM21.467 6.416C21.4871 6.41514 21.5071 6.41982 21.5247 6.42952C21.5423 6.43921 21.557 6.45356 21.567 6.471L21.568 6.475C21.583 6.50076 21.5872 6.53139 21.5797 6.56023C21.5722 6.58908 21.5536 6.61379 21.528 6.629L19.932 7.555C19.9191 7.56253 19.9049 7.56745 19.8902 7.56947C19.8754 7.57149 19.8604 7.57056 19.846 7.56675C19.8316 7.56294 19.8181 7.55632 19.8062 7.54726C19.7944 7.53821 19.7845 7.52691 19.777 7.514L19.775 7.51C19.7675 7.49714 19.7625 7.48292 19.7605 7.46816C19.7585 7.45339 19.7594 7.43838 19.7632 7.42397C19.7671 7.40956 19.7737 7.39605 19.7827 7.38422C19.7918 7.37238 19.8031 7.36245 19.816 7.355L21.412 6.43C21.4289 6.42081 21.4478 6.416 21.467 6.416ZM2.094 7.262C2.108 7.262 2.123 7.265 2.137 7.272L2.975 7.664C2.98809 7.67021 2.99982 7.67895 3.00953 7.68971C3.01923 7.70047 3.02671 7.71304 3.03155 7.7267C3.03638 7.74035 3.03846 7.75483 3.03768 7.7693C3.0369 7.78377 3.03327 7.79794 3.027 7.811L3.023 7.821C3.01045 7.84718 2.98806 7.86734 2.96071 7.87708C2.93336 7.88682 2.90327 7.88535 2.877 7.873L2.039 7.48C2.01264 7.46763 1.99226 7.44532 1.98233 7.41795C1.97239 7.39059 1.97371 7.3604 1.986 7.334L1.99 7.324C1.99926 7.30454 2.01409 7.28827 2.0326 7.27723C2.05111 7.2662 2.07248 7.2609 2.094 7.262ZM21.904 7.264C21.9258 7.26262 21.9476 7.26779 21.9665 7.27883C21.9853 7.28988 22.0005 7.3063 22.01 7.326L22.012 7.334C22.0243 7.3604 22.0256 7.39059 22.0157 7.41795C22.0057 7.44532 21.9854 7.46763 21.959 7.48L21.121 7.873C21.0946 7.88529 21.0644 7.88661 21.037 7.87667C21.0097 7.86674 20.9874 7.84636 20.975 7.82L20.971 7.812C20.9586 7.78573 20.9572 7.75564 20.9669 7.72829C20.9767 7.70094 20.9968 7.67855 21.023 7.666L21.861 7.273C21.8745 7.26679 21.8891 7.26439 21.904 7.264ZM1.721 8.144C1.735 8.144 1.749 8.145 1.764 8.15L3.496 8.781C3.51 8.78602 3.52285 8.79377 3.53382 8.8038C3.54479 8.81384 3.55366 8.82596 3.55989 8.83946C3.56613 8.85295 3.56962 8.86756 3.57015 8.88242C3.57068 8.89727 3.56825 8.91209 3.563 8.926L3.561 8.932C3.5561 8.94583 3.54848 8.95855 3.53859 8.96939C3.5287 8.98024 3.51674 8.98899 3.50341 8.99514C3.49009 9.00129 3.47566 9.00471 3.46099 9.0052C3.44633 9.0057 3.43171 9.00325 3.418 8.998L1.686 8.368C1.67191 8.36307 1.65893 8.3554 1.64782 8.34542C1.6367 8.33545 1.62768 8.32337 1.62126 8.30989C1.61485 8.29641 1.61117 8.28179 1.61044 8.26687C1.6097 8.25196 1.61193 8.23705 1.617 8.223L1.619 8.219C1.62695 8.19808 1.64084 8.17993 1.65896 8.16679C1.67708 8.15364 1.69864 8.14607 1.721 8.145V8.144ZM22.27 8.144C22.2939 8.14325 22.3174 8.1501 22.3372 8.16358C22.357 8.17706 22.372 8.19646 22.38 8.219L22.383 8.223C22.393 8.25152 22.3913 8.28283 22.3784 8.31015C22.3655 8.33747 22.3424 8.35861 22.314 8.369L20.582 8.998C20.5682 9.00328 20.5534 9.00575 20.5386 9.00529C20.5238 9.00482 20.5092 9.00142 20.4957 8.99528C20.4822 8.98914 20.4701 8.98039 20.46 8.96952C20.4499 8.95866 20.4421 8.94591 20.437 8.932L20.436 8.926C20.4309 8.91202 20.4286 8.89717 20.4293 8.8823C20.43 8.86743 20.4336 8.85285 20.4399 8.83937C20.4462 8.8259 20.4551 8.81381 20.4661 8.80379C20.4771 8.79377 20.49 8.78603 20.504 8.781L22.236 8.151C22.2469 8.14722 22.2584 8.1452 22.27 8.145V8.144ZM1.434 9.053C1.44514 9.05265 1.45627 9.054 1.467 9.057L2.359 9.297C2.419 9.313 2.455 9.374 2.439 9.434L2.437 9.441C2.4334 9.4552 2.427 9.46854 2.41818 9.48024C2.40936 9.49193 2.39829 9.50175 2.38562 9.50911C2.37295 9.51647 2.35894 9.52122 2.34441 9.52309C2.32988 9.52496 2.31512 9.52391 2.301 9.52L1.406 9.281C1.37749 9.27283 1.35334 9.25379 1.33874 9.22797C1.32415 9.20215 1.32029 9.17164 1.328 9.143L1.33 9.137C1.33614 9.11376 1.34954 9.09308 1.36825 9.07797C1.38695 9.06286 1.40998 9.05412 1.434 9.053ZM22.564 9.055C22.5883 9.05601 22.6116 9.06468 22.6307 9.07977C22.6497 9.09486 22.6635 9.1156 22.67 9.139V9.143C22.674 9.15718 22.6751 9.17201 22.6733 9.18662C22.6715 9.20124 22.6669 9.21535 22.6596 9.22817C22.6524 9.24099 22.6427 9.25225 22.6311 9.26132C22.6195 9.27038 22.6062 9.27707 22.592 9.281L21.699 9.52C21.6848 9.52393 21.6699 9.52501 21.6552 9.52316C21.6405 9.52132 21.6264 9.51658 21.6135 9.50924C21.6007 9.5019 21.5895 9.49208 21.5805 9.48037C21.5714 9.46866 21.5648 9.45528 21.561 9.441V9.436C21.5567 9.42169 21.5554 9.40667 21.557 9.39183C21.5587 9.37698 21.5632 9.36262 21.5705 9.34957C21.5778 9.33653 21.5876 9.32507 21.5993 9.31587C21.6111 9.30667 21.6246 9.29991 21.639 9.296L22.531 9.059C22.5417 9.056 22.5529 9.05465 22.564 9.055ZM1.229 9.985L1.252 9.986L3.066 10.309C3.128 10.319 3.167 10.378 3.156 10.439V10.445C3.15347 10.4595 3.14809 10.4733 3.14016 10.4857C3.13224 10.4981 3.12193 10.5088 3.10983 10.5172C3.09773 10.5256 3.08409 10.5315 3.0697 10.5345C3.05531 10.5376 3.04046 10.5377 3.026 10.535L1.211 10.213C1.19635 10.2105 1.18234 10.2051 1.16978 10.1971C1.15722 10.1891 1.14635 10.1788 1.1378 10.1666C1.12926 10.1544 1.1232 10.1407 1.11997 10.1262C1.11674 10.1117 1.11641 10.0966 1.119 10.082L1.121 10.076C1.12525 10.0504 1.13842 10.0271 1.15819 10.0103C1.17795 9.99343 1.20304 9.98512 1.229 9.985ZM22.748 9.986H22.77C22.822 9.988 22.87 10.024 22.879 10.078V10.084C22.889 10.146 22.849 10.204 22.787 10.214L20.973 10.535C20.9584 10.5376 20.9433 10.5373 20.9288 10.534C20.9143 10.5308 20.9006 10.5247 20.8884 10.5162C20.8762 10.5076 20.8659 10.4968 20.8579 10.4842C20.8499 10.4717 20.8445 10.4577 20.842 10.443V10.438C20.8394 10.4234 20.8397 10.4083 20.843 10.3938C20.8462 10.3793 20.8523 10.3656 20.8608 10.3534C20.8694 10.3412 20.8802 10.3309 20.8928 10.3229C20.9053 10.3149 20.9193 10.3095 20.934 10.307L22.748 9.987V9.986ZM1.104 10.93H1.115L2.037 11.014C2.05155 11.015 2.06575 11.0189 2.07879 11.0255C2.09182 11.032 2.10342 11.0411 2.11291 11.0521C2.1224 11.0632 2.1296 11.0761 2.13407 11.09C2.13855 11.1038 2.14023 11.1185 2.139 11.133L2.137 11.143C2.13575 11.1576 2.13161 11.1717 2.12483 11.1847C2.11804 11.1976 2.10874 11.2091 2.09748 11.2184C2.08621 11.2277 2.07321 11.2347 2.05922 11.2389C2.04523 11.2431 2.03054 11.2445 2.016 11.243L1.094 11.16C1.07953 11.1587 1.06546 11.1546 1.05258 11.1479C1.03971 11.1412 1.0283 11.132 1.019 11.1208C1.00971 11.1097 1.00271 11.0968 0.998418 11.0829C0.994127 11.069 0.992626 11.0545 0.994 11.04V11.031C0.996487 11.0035 1.00914 10.9779 1.02948 10.9592C1.04982 10.9406 1.07639 10.9301 1.104 10.93ZM22.883 10.932H22.895C22.951 10.932 23.001 10.975 23.005 11.033V11.041C23.0078 11.0703 22.9988 11.0995 22.9801 11.1222C22.9613 11.1449 22.9343 11.1592 22.905 11.162L21.982 11.242C21.9527 11.2445 21.9236 11.2353 21.9011 11.2163C21.8786 11.1974 21.8645 11.1703 21.862 11.141V11.133C21.8592 11.1037 21.8682 11.0745 21.8869 11.0518C21.9057 11.0291 21.9327 11.0148 21.962 11.012L22.883 10.932ZM11.063 11.662L6.091 16.95C8.111 15.626 10.13 14.304 12.157 12.974L11.062 11.664L11.063 11.662ZM22.933 11.881C22.996 11.881 23.047 11.931 23.047 11.994V11.998C23.047 12.061 22.997 12.111 22.934 12.111L21.09 12.115C21.06 12.115 21.0313 12.1031 21.0101 12.0819C20.9889 12.0607 20.977 12.032 20.977 12.002V11.998C20.977 11.935 21.027 11.885 21.09 11.885L22.933 11.881ZM1.064 11.883H2.908C2.97 11.883 3.02 11.933 3.02 11.994V12.002C3.02 12.064 2.97 12.113 2.908 12.113H1.064C1.03473 12.1127 1.00676 12.1009 0.986157 12.0801C0.965556 12.0593 0.953999 12.0313 0.954 12.002V11.994C0.954 11.933 1.003 11.883 1.064 11.883ZM2.016 12.758H2.027C2.05468 12.7579 2.08138 12.7683 2.10177 12.787C2.12215 12.8057 2.13474 12.8314 2.137 12.859V12.865C2.13837 12.8797 2.13681 12.8945 2.1324 12.9085C2.128 12.9226 2.12084 12.9356 2.11135 12.9469C2.10186 12.9581 2.09022 12.9674 2.07711 12.9741C2.064 12.9808 2.04969 12.9849 2.035 12.986L1.113 13.066C1.09855 13.0672 1.08399 13.0656 1.07017 13.0612C1.05635 13.0568 1.04354 13.0496 1.03248 13.0403C1.02142 13.0309 1.01233 13.0194 1.00572 13.0065C0.999119 12.9936 0.995135 12.9795 0.994 12.965L0.992 12.959C0.99063 12.9443 0.992192 12.9295 0.996595 12.9155C1.001 12.9014 1.00816 12.8884 1.01765 12.8771C1.02714 12.8659 1.03878 12.8566 1.05189 12.8499C1.065 12.8432 1.07931 12.8391 1.094 12.838L2.016 12.758ZM21.971 12.758H21.982L22.904 12.838C22.9185 12.839 22.9328 12.8429 22.9458 12.8495C22.9588 12.856 22.9704 12.8651 22.9799 12.8761C22.9894 12.8872 22.9966 12.9001 23.0011 12.914C23.0056 12.9278 23.0072 12.9425 23.006 12.957V12.965C23.0032 12.9944 22.9889 13.0215 22.9663 13.0404C22.9436 13.0593 22.9144 13.0685 22.885 13.066L21.963 12.986C21.9484 12.985 21.9342 12.9811 21.9212 12.9745C21.9082 12.968 21.8966 12.9589 21.8871 12.9479C21.8776 12.9368 21.8704 12.9239 21.8659 12.91C21.8614 12.8962 21.8598 12.8815 21.861 12.867V12.859C21.8635 12.8315 21.8761 12.8059 21.8965 12.7872C21.9168 12.7686 21.9434 12.7581 21.971 12.758ZM3.047 13.463C3.1 13.464 3.145 13.503 3.154 13.557L3.156 13.561C3.167 13.622 3.126 13.681 3.064 13.691L1.252 14.011C1.22272 14.016 1.19267 14.0092 1.16834 13.9922C1.14401 13.9751 1.12736 13.9492 1.122 13.92V13.916C1.11669 13.8865 1.12313 13.856 1.13994 13.8312C1.15675 13.8063 1.18261 13.789 1.212 13.783L3.023 13.465C3.03091 13.4635 3.03895 13.4628 3.047 13.463ZM20.949 13.463C20.957 13.463 20.965 13.463 20.973 13.465L22.789 13.785C22.85 13.796 22.889 13.855 22.879 13.916V13.92C22.8765 13.9347 22.8711 13.9487 22.8631 13.9612C22.8551 13.9738 22.8448 13.9846 22.8326 13.9932C22.8204 14.0017 22.8067 14.0078 22.7922 14.011C22.7777 14.0143 22.7626 14.0146 22.748 14.012L20.932 13.692C20.9175 13.6894 20.9036 13.6839 20.8912 13.6758C20.8788 13.6678 20.8681 13.6574 20.8597 13.6452C20.8514 13.6331 20.8455 13.6193 20.8425 13.6049C20.8394 13.5904 20.8393 13.5755 20.842 13.561V13.557C20.8463 13.5314 20.8593 13.5081 20.8788 13.491C20.8983 13.4739 20.9231 13.464 20.949 13.463ZM2.332 14.477C2.35589 14.4775 2.37896 14.4858 2.39772 14.5006C2.41649 14.5154 2.42992 14.5359 2.436 14.559L2.438 14.564C2.454 14.624 2.418 14.685 2.358 14.701L1.467 14.941C1.45275 14.9448 1.4379 14.9457 1.42329 14.9437C1.40869 14.9417 1.39462 14.9369 1.38189 14.9294C1.36917 14.922 1.35803 14.9121 1.34913 14.9004C1.34022 14.8886 1.33372 14.8753 1.33 14.861L1.328 14.855C1.32069 14.8264 1.325 14.796 1.33999 14.7705C1.35497 14.745 1.37942 14.7265 1.408 14.719L2.298 14.48C2.30911 14.4773 2.32058 14.4763 2.332 14.477ZM21.664 14.477C21.675 14.477 21.688 14.477 21.699 14.48L22.592 14.719C22.652 14.735 22.688 14.796 22.672 14.855L22.67 14.861C22.6662 14.8752 22.6596 14.8884 22.6506 14.9C22.6417 14.9116 22.6305 14.9213 22.6178 14.9285C22.605 14.9358 22.591 14.9405 22.5764 14.9422C22.5619 14.944 22.5471 14.9429 22.533 14.939L21.639 14.701C21.6248 14.6972 21.6116 14.6906 21.6 14.6816C21.5884 14.6727 21.5787 14.6615 21.5715 14.6488C21.5642 14.636 21.5595 14.622 21.5578 14.6074C21.556 14.5929 21.5571 14.5781 21.561 14.564L21.563 14.559C21.5688 14.5363 21.5817 14.5161 21.5999 14.5013C21.6181 14.4865 21.6406 14.478 21.664 14.477ZM3.451 14.994C3.47489 14.9927 3.49855 14.9992 3.5184 15.0126C3.53825 15.0259 3.55321 15.0454 3.561 15.068L3.563 15.072C3.56825 15.0859 3.57068 15.1007 3.57015 15.1156C3.56962 15.1304 3.56613 15.145 3.55989 15.1585C3.55366 15.172 3.54479 15.1842 3.53382 15.1942C3.52285 15.2042 3.51 15.212 3.496 15.217L1.764 15.847C1.75002 15.8521 1.73517 15.8544 1.7203 15.8537C1.70543 15.853 1.69085 15.8494 1.67737 15.8431C1.6639 15.8368 1.65181 15.8279 1.64179 15.8169C1.63177 15.8059 1.62403 15.793 1.619 15.779L1.617 15.775C1.60708 15.7468 1.60877 15.7157 1.62171 15.6887C1.63465 15.6617 1.65777 15.641 1.686 15.631L3.418 15C3.42863 14.9963 3.43976 14.9943 3.451 14.994ZM20.537 14.994C20.552 14.994 20.566 14.994 20.58 15L22.314 15.63C22.3278 15.6349 22.3406 15.6425 22.3514 15.6524C22.3623 15.6623 22.3711 15.6742 22.3774 15.6875C22.3836 15.7008 22.3871 15.7152 22.3878 15.7299C22.3884 15.7446 22.3861 15.7592 22.381 15.773L22.379 15.781C22.3741 15.7948 22.3665 15.8076 22.3566 15.8184C22.3467 15.8293 22.3348 15.8381 22.3215 15.8444C22.3082 15.8506 22.2938 15.8541 22.2791 15.8548C22.2644 15.8554 22.2498 15.8531 22.236 15.848L20.502 15.217C20.4882 15.212 20.4756 15.2043 20.4649 15.1944C20.4541 15.1845 20.4454 15.1725 20.4392 15.1592C20.4331 15.1459 20.4297 15.1316 20.4291 15.1169C20.4286 15.1023 20.4309 15.0877 20.436 15.074L20.438 15.066C20.4457 15.0455 20.4593 15.0277 20.4771 15.0148C20.4949 15.002 20.5151 14.9948 20.537 14.994ZM2.92 16.117C2.94147 16.1162 2.96269 16.1217 2.98102 16.1329C2.99935 16.1441 3.01395 16.1605 3.023 16.18L3.027 16.19C3.03308 16.2029 3.03655 16.2168 3.03722 16.231C3.0379 16.2452 3.03576 16.2594 3.03092 16.2728C3.02609 16.2862 3.01866 16.2985 3.00907 16.309C2.99947 16.3195 2.98789 16.328 2.975 16.334L2.137 16.727C2.12376 16.7332 2.10942 16.7367 2.09482 16.7372C2.08022 16.7378 2.06565 16.7355 2.05196 16.7303C2.03828 16.7252 2.02575 16.7174 2.01511 16.7074C2.00447 16.6974 1.99594 16.6854 1.99 16.672L1.986 16.664C1.97371 16.6376 1.97239 16.6074 1.98233 16.58C1.99226 16.5527 2.01264 16.5304 2.039 16.518L2.877 16.127C2.89053 16.1208 2.90515 16.1174 2.92 16.117ZM21.078 16.117C21.0929 16.1174 21.1075 16.1208 21.121 16.127L21.959 16.517C22.015 16.544 22.039 16.61 22.014 16.666L22.012 16.67C22.0059 16.6834 21.9971 16.6955 21.9863 16.7055C21.9755 16.7156 21.9628 16.7234 21.9489 16.7285C21.9351 16.7336 21.9204 16.7359 21.9056 16.7353C21.8909 16.7347 21.8764 16.7312 21.863 16.725L21.025 16.334C20.9983 16.3214 20.9777 16.2988 20.9676 16.2711C20.9575 16.2434 20.9587 16.2128 20.971 16.186L20.973 16.182C20.9822 16.1621 20.9971 16.1453 21.0157 16.1337C21.0344 16.1222 21.0561 16.1164 21.078 16.117ZM4.121 16.432C4.161 16.431 4.199 16.452 4.221 16.488L4.225 16.492C4.23263 16.5047 4.23762 16.5187 4.23969 16.5334C4.24175 16.548 4.24084 16.5629 4.23701 16.5772C4.23319 16.5915 4.22652 16.6049 4.21741 16.6165C4.2083 16.6282 4.19694 16.6378 4.184 16.645L2.588 17.566C2.56224 17.581 2.53161 17.5852 2.50277 17.5777C2.47392 17.5702 2.44921 17.5516 2.434 17.526L2.432 17.521C2.41701 17.4952 2.41281 17.4646 2.4203 17.4358C2.42779 17.4069 2.44637 17.3822 2.472 17.367L4.068 16.445C4.08428 16.4362 4.10252 16.4318 4.121 16.432ZM19.877 16.432C19.895 16.432 19.913 16.436 19.93 16.445L21.527 17.369C21.5398 17.3762 21.551 17.3858 21.5601 17.3974C21.5691 17.4089 21.5757 17.4222 21.5795 17.4364C21.5833 17.4505 21.5843 17.4653 21.5823 17.4798C21.5803 17.4944 21.5755 17.5084 21.568 17.521L21.566 17.525C21.5588 17.5378 21.5492 17.549 21.5376 17.5581C21.5261 17.5671 21.5128 17.5737 21.4986 17.5775C21.4845 17.5813 21.4697 17.5823 21.4552 17.5803C21.4406 17.5783 21.4266 17.5735 21.414 17.566L19.816 16.645C19.8032 16.6375 19.792 16.6275 19.783 16.6156C19.7741 16.6037 19.7675 16.5902 19.7638 16.5758C19.7601 16.5614 19.7593 16.5464 19.7614 16.5317C19.7634 16.517 19.7684 16.5028 19.776 16.49L19.777 16.488C19.787 16.4705 19.8016 16.456 19.8192 16.4461C19.8368 16.4362 19.8568 16.4314 19.877 16.432ZM20.205 17.625C20.2266 17.6259 20.2475 17.6332 20.265 17.646L21.023 18.18C21.073 18.215 21.084 18.282 21.049 18.332L21.045 18.34C21.0281 18.3639 21.0024 18.3802 20.9736 18.3852C20.9447 18.3903 20.915 18.3837 20.891 18.367L20.135 17.832C20.1232 17.8239 20.113 17.8135 20.1052 17.8015C20.0974 17.7894 20.092 17.7759 20.0894 17.7618C20.0868 17.7477 20.087 17.7332 20.09 17.7192C20.0931 17.7051 20.0988 17.6918 20.107 17.68L20.113 17.672C20.1233 17.6572 20.1371 17.6452 20.1531 17.637C20.1692 17.6288 20.187 17.6247 20.205 17.625ZM3.793 17.627C3.828 17.627 3.865 17.643 3.887 17.674L3.891 17.682C3.89918 17.6938 3.90494 17.7071 3.90796 17.7212C3.91099 17.7352 3.9112 17.7497 3.9086 17.7638C3.906 17.7779 3.90063 17.7914 3.8928 17.8035C3.88498 17.8155 3.87485 17.8259 3.863 17.834L3.107 18.365C3.09542 18.3735 3.08228 18.3795 3.06833 18.3829C3.05438 18.3862 3.03991 18.3867 3.02576 18.3844C3.01161 18.382 2.99807 18.3769 2.98592 18.3693C2.97377 18.3617 2.96326 18.3517 2.955 18.34L2.949 18.332C2.94082 18.3202 2.93506 18.3069 2.93203 18.2928C2.92901 18.2788 2.9288 18.2643 2.9314 18.2502C2.934 18.2361 2.93937 18.2226 2.9472 18.2105C2.95502 18.1985 2.96515 18.1881 2.977 18.18L3.732 17.646C3.74992 17.6336 3.77121 17.627 3.793 17.627ZM18.955 17.729C18.9696 17.7276 18.9844 17.7291 18.9985 17.7333C19.0126 17.7376 19.0256 17.7447 19.037 17.754L20.451 18.941C20.4624 18.9503 20.4718 18.9617 20.4787 18.9747C20.4856 18.9877 20.4898 19.0019 20.4911 19.0165C20.4924 19.0312 20.4908 19.0459 20.4863 19.0599C20.4818 19.0739 20.4746 19.0869 20.465 19.098L20.461 19.102C20.4416 19.1245 20.4142 19.1384 20.3847 19.1409C20.3551 19.1433 20.3258 19.134 20.303 19.115L18.89 17.93C18.8786 17.9207 18.8692 17.9093 18.8623 17.8963C18.8554 17.8833 18.8512 17.8691 18.8499 17.8545C18.8486 17.8398 18.8502 17.8251 18.8547 17.8111C18.8592 17.7971 18.8664 17.7841 18.876 17.773L18.88 17.768C18.889 17.7567 18.9002 17.7474 18.9129 17.7405C18.9257 17.7336 18.9396 17.7294 18.954 17.728L18.955 17.729ZM6.143 18.849C6.17206 18.8467 6.20083 18.8561 6.223 18.875L6.23 18.883C6.25213 18.9017 6.26601 18.9283 6.26863 18.9571C6.27125 18.986 6.2624 19.0147 6.244 19.037L5.06 20.451C5.04103 20.4731 5.01405 20.4868 4.98498 20.4891C4.95592 20.4913 4.92715 20.4819 4.905 20.463L4.897 20.457C4.87502 20.4382 4.86133 20.4115 4.8589 20.3827C4.85647 20.3538 4.86548 20.3252 4.884 20.303L6.069 18.889C6.07822 18.8777 6.0896 18.8683 6.10248 18.8615C6.11536 18.8546 6.12847 18.8504 6.143 18.849ZM17.846 18.849C17.878 18.849 17.911 18.864 17.934 18.891L19.115 20.301C19.155 20.349 19.15 20.421 19.102 20.461L19.1 20.463C19.0769 20.4823 19.0471 20.4916 19.0171 20.489C18.9871 20.4863 18.9594 20.472 18.94 20.449L17.758 19.039C17.7386 19.016 17.7291 18.9863 17.7316 18.9563C17.734 18.9264 17.7482 18.8986 17.771 18.879L17.773 18.877C17.7935 18.8598 17.8193 18.8492 17.846 18.849ZM4.918 18.963C4.945 18.963 4.972 18.973 4.992 18.994L5.006 19.006C5.02567 19.026 5.03668 19.0529 5.03668 19.081C5.03668 19.1091 5.02567 19.136 5.006 19.156L4.344 19.816C4.33424 19.8258 4.32263 19.8336 4.30985 19.8389C4.29706 19.8443 4.28335 19.847 4.2695 19.847C4.25565 19.847 4.24194 19.8443 4.22915 19.8389C4.21637 19.8336 4.20476 19.8258 4.195 19.816L4.184 19.805C4.17417 19.7952 4.16637 19.7836 4.16105 19.7708C4.15573 19.7581 4.15299 19.7443 4.15299 19.7305C4.15299 19.7166 4.15573 19.7029 4.16105 19.6902C4.16637 19.6774 4.17417 19.6658 4.184 19.656L4.844 18.994C4.86359 18.9743 4.8902 18.9631 4.918 18.963ZM19.082 18.963C19.109 18.963 19.135 18.973 19.156 18.994L19.816 19.656C19.8259 19.6658 19.8337 19.6775 19.839 19.6904C19.8443 19.7033 19.8471 19.7171 19.8471 19.731C19.8471 19.7449 19.8443 19.7587 19.839 19.7716C19.8337 19.7845 19.8259 19.7962 19.816 19.806L19.805 19.818C19.795 19.8277 19.7832 19.8354 19.7703 19.8406C19.7573 19.8457 19.7435 19.8483 19.7296 19.8481C19.7157 19.8479 19.7019 19.845 19.6891 19.8395C19.6763 19.834 19.6647 19.826 19.655 19.816L18.995 19.156C18.9852 19.1461 18.9775 19.1343 18.9722 19.1214C18.967 19.1085 18.9643 19.0947 18.9644 19.0808C18.9645 19.0669 18.9673 19.0531 18.9728 19.0403C18.9782 19.0274 18.9861 19.0158 18.996 19.006L19.006 18.994C19.0263 18.9741 19.0536 18.9629 19.082 18.963ZM7.455 19.76C7.473 19.76 7.489 19.766 7.505 19.775L7.512 19.779C7.53715 19.7936 7.55548 19.8176 7.56298 19.8457C7.57047 19.8739 7.56653 19.9038 7.552 19.929L6.631 21.527C6.61654 21.5523 6.59261 21.5709 6.56449 21.5785C6.53636 21.5862 6.50633 21.5824 6.481 21.568L6.473 21.564C6.46038 21.5567 6.44933 21.5469 6.44049 21.5353C6.43164 21.5237 6.42518 21.5104 6.42146 21.4963C6.41775 21.4822 6.41685 21.4675 6.41883 21.453C6.42081 21.4385 6.42563 21.4246 6.433 21.412L7.355 19.816C7.36516 19.7986 7.37979 19.7842 7.39737 19.7744C7.41496 19.7645 7.43485 19.7596 7.455 19.76ZM16.543 19.762C16.563 19.761 16.5829 19.7656 16.6005 19.7751C16.6181 19.7846 16.6328 19.7987 16.643 19.816L17.568 21.412C17.583 21.4378 17.5872 21.4684 17.5797 21.4972C17.5722 21.5261 17.5536 21.5508 17.528 21.566H17.523C17.5105 21.5735 17.4966 21.5785 17.4822 21.5807C17.4677 21.5828 17.453 21.582 17.4388 21.5784C17.4247 21.5747 17.4114 21.5683 17.3997 21.5595C17.3881 21.5507 17.3783 21.5396 17.371 21.527L16.445 19.932C16.4375 19.9191 16.4325 19.9049 16.4305 19.8902C16.4285 19.8754 16.4294 19.8604 16.4332 19.846C16.4371 19.8316 16.4437 19.8181 16.4527 19.8062C16.4618 19.7944 16.4731 19.7845 16.486 19.777L16.49 19.775C16.5063 19.7662 16.5245 19.7617 16.543 19.762ZM6.258 20.086C6.279 20.086 6.301 20.094 6.32 20.107L6.324 20.109C6.375 20.145 6.387 20.215 6.352 20.266L5.822 21.021C5.8136 21.0331 5.8029 21.0434 5.79051 21.0514C5.77813 21.0593 5.76429 21.0647 5.7498 21.0673C5.73532 21.0699 5.72046 21.0697 5.70608 21.0665C5.6917 21.0634 5.67808 21.0574 5.666 21.049L5.662 21.047C5.63774 21.0299 5.62128 21.0038 5.61621 20.9746C5.61115 20.9453 5.61791 20.9153 5.635 20.891L6.165 20.135C6.17526 20.1197 6.18909 20.1072 6.2053 20.0985C6.22151 20.0898 6.2396 20.0851 6.258 20.085V20.086ZM17.742 20.088C17.778 20.088 17.814 20.103 17.836 20.135L18.366 20.891C18.401 20.941 18.389 21.011 18.338 21.047L18.334 21.049C18.3219 21.0574 18.3083 21.0634 18.2939 21.0665C18.2795 21.0697 18.2647 21.0699 18.2502 21.0673C18.2357 21.0647 18.2219 21.0593 18.2095 21.0514C18.1971 21.0434 18.1864 21.0331 18.178 21.021L17.648 20.266C17.6394 20.2539 17.6334 20.2402 17.6301 20.2257C17.6269 20.2112 17.6266 20.1963 17.6292 20.1816C17.6318 20.167 17.6373 20.1531 17.6453 20.1406C17.6533 20.1282 17.6638 20.1174 17.676 20.109L17.68 20.107C17.6982 20.0943 17.7198 20.0884 17.742 20.088ZM8.879 20.43C8.89359 20.4291 8.90821 20.4312 8.922 20.436L8.934 20.441C8.99 20.461 9.018 20.522 8.998 20.578L8.365 22.318C8.36032 22.3311 8.35306 22.3432 8.34366 22.3535C8.33425 22.3638 8.32288 22.3722 8.31022 22.378C8.29756 22.3839 8.28385 22.3872 8.26991 22.3877C8.25596 22.3882 8.24206 22.3859 8.229 22.381L8.215 22.377C8.20164 22.3724 8.18933 22.3652 8.17879 22.3558C8.16826 22.3464 8.15971 22.3349 8.15366 22.3222C8.1476 22.3094 8.14416 22.2956 8.14353 22.2815C8.1429 22.2673 8.1451 22.2533 8.15 22.24L8.783 20.5C8.79029 20.4802 8.80331 20.4629 8.82039 20.4505C8.83748 20.438 8.85787 20.4309 8.879 20.43ZM15.111 20.43C15.1338 20.4288 15.1564 20.435 15.1755 20.4476C15.1946 20.4602 15.2091 20.4785 15.217 20.5L15.85 22.238C15.8548 22.2513 15.8569 22.2653 15.8562 22.2794C15.8555 22.2935 15.852 22.3073 15.846 22.32C15.8399 22.3327 15.8314 22.3441 15.821 22.3536C15.8105 22.363 15.7983 22.3703 15.785 22.375L15.77 22.381C15.7567 22.3858 15.7427 22.3879 15.7286 22.3872C15.7145 22.3865 15.7007 22.383 15.688 22.377C15.6753 22.3709 15.6639 22.3624 15.6544 22.352C15.645 22.3415 15.6377 22.3293 15.633 22.316L15 20.578C14.9903 20.5513 14.9917 20.5219 15.0037 20.4963C15.0157 20.4706 15.0374 20.4507 15.064 20.441L15.078 20.436C15.0887 20.4324 15.0998 20.4304 15.111 20.43ZM10.416 20.84C10.424 20.84 10.43 20.84 10.437 20.842L10.443 20.844C10.505 20.854 10.544 20.911 10.533 20.973L10.215 22.785C10.2125 22.7997 10.2071 22.8137 10.1991 22.8262C10.1911 22.8388 10.1808 22.8496 10.1686 22.8582C10.1564 22.8667 10.1427 22.8728 10.1282 22.876C10.1137 22.8793 10.0986 22.8796 10.084 22.877L10.08 22.875C10.0654 22.8727 10.0515 22.8675 10.0389 22.8598C10.0264 22.852 10.0155 22.8418 10.0069 22.8298C9.99836 22.8178 9.99228 22.8042 9.98903 22.7898C9.98578 22.7754 9.98543 22.7605 9.988 22.746L10.308 20.934C10.3124 20.9083 10.3255 20.8848 10.3452 20.8677C10.3649 20.8506 10.3899 20.8408 10.416 20.84ZM13.562 20.842C13.57 20.84 13.577 20.842 13.584 20.842C13.6097 20.8425 13.6345 20.852 13.654 20.8688C13.6735 20.8856 13.6866 20.9086 13.691 20.934L14.011 22.746C14.023 22.807 13.981 22.866 13.92 22.877L13.916 22.879C13.8866 22.8839 13.8564 22.877 13.832 22.8598C13.8077 22.8426 13.7911 22.8164 13.786 22.787L13.465 20.975C13.4624 20.9604 13.4627 20.9453 13.466 20.9308C13.4692 20.9163 13.4753 20.9026 13.4838 20.8904C13.4924 20.8782 13.5032 20.8679 13.5158 20.8599C13.5283 20.8519 13.5423 20.8465 13.557 20.844L13.562 20.842ZM7.772 20.961C7.78652 20.9615 7.8008 20.9649 7.814 20.971L7.818 20.973C7.845 20.9858 7.86589 21.0087 7.87617 21.0368C7.88646 21.0648 7.88532 21.0958 7.873 21.123L7.48 21.957C7.46759 21.9839 7.44507 22.0047 7.41734 22.015C7.38961 22.0253 7.35893 22.0242 7.332 22.012L7.328 22.01C7.31458 22.0039 7.3025 21.9951 7.29247 21.9843C7.28243 21.9735 7.27463 21.9608 7.26952 21.9469C7.26441 21.9331 7.26209 21.9184 7.26268 21.9036C7.26328 21.8889 7.26679 21.8744 7.273 21.861L7.666 21.025C7.67535 21.0053 7.69027 20.9887 7.70893 20.9773C7.72759 20.9659 7.75016 20.9603 7.772 20.961ZM16.23 20.961C16.2515 20.9598 16.273 20.965 16.2915 20.9761C16.31 20.9871 16.3248 21.0035 16.334 21.023L16.724 21.863C16.7303 21.8761 16.7339 21.8902 16.7347 21.9047C16.7355 21.9192 16.7334 21.9336 16.7285 21.9473C16.7237 21.961 16.7162 21.9735 16.7065 21.9843C16.6968 21.9951 16.6851 22.0038 16.672 22.01L16.664 22.014C16.6508 22.02 16.6366 22.0234 16.6221 22.0239C16.6076 22.0244 16.5931 22.022 16.5796 22.0169C16.566 22.0118 16.5536 22.004 16.543 21.9941C16.5324 21.9841 16.5239 21.9722 16.518 21.959L16.127 21.121C16.1147 21.0946 16.1134 21.0644 16.1233 21.037C16.1333 21.0097 16.1536 20.9874 16.18 20.975L16.188 20.971C16.2012 20.9649 16.2155 20.9615 16.23 20.961ZM11.994 20.979H12C12.063 20.979 12.115 21.029 12.115 21.092L12.117 22.932C12.117 22.995 12.067 23.045 12.004 23.045H11.998C11.968 23.045 11.9393 23.0331 11.9181 23.0119C11.8969 22.9907 11.885 22.962 11.885 22.932L11.881 21.094C11.881 21.031 11.931 20.979 11.994 20.979ZM9.402 21.557C9.413 21.557 9.424 21.557 9.436 21.561L9.441 21.563C9.501 21.579 9.536 21.64 9.52 21.699L9.28 22.592C9.27618 22.6061 9.2696 22.6194 9.26063 22.631C9.25166 22.6426 9.24049 22.6523 9.22775 22.6595C9.21502 22.6668 9.20097 22.6715 9.18642 22.6732C9.17187 22.675 9.15712 22.6739 9.143 22.67L9.137 22.668C9.12285 22.6642 9.10959 22.6576 9.098 22.6486C9.08641 22.6397 9.07671 22.6285 9.06945 22.6158C9.0622 22.603 9.05755 22.589 9.05575 22.5744C9.05396 22.5599 9.05506 22.5451 9.059 22.531L9.299 21.641C9.30509 21.6179 9.31834 21.5973 9.33684 21.5823C9.35535 21.5672 9.37816 21.5583 9.402 21.557ZM14.598 21.559C14.6217 21.5597 14.6446 21.5681 14.6631 21.5829C14.6817 21.5977 14.695 21.6181 14.701 21.641L14.941 22.531C14.9451 22.5451 14.9463 22.5599 14.9446 22.5745C14.9428 22.5891 14.9382 22.6032 14.9309 22.616C14.9236 22.6287 14.9139 22.6399 14.9022 22.6489C14.8906 22.6578 14.8772 22.6643 14.863 22.668L14.857 22.67C14.8429 22.6739 14.8283 22.675 14.8138 22.6732C14.7993 22.6714 14.7853 22.6667 14.7727 22.6595C14.76 22.6522 14.7489 22.6425 14.7401 22.6309C14.7312 22.6193 14.7247 22.6061 14.721 22.592L14.481 21.702C14.4768 21.6878 14.4754 21.6729 14.4771 21.6582C14.4788 21.6435 14.4834 21.6293 14.4906 21.6164C14.4979 21.6035 14.5077 21.5922 14.5195 21.5832C14.5312 21.5742 14.5447 21.5677 14.559 21.564L14.564 21.562C14.5751 21.5593 14.5866 21.5583 14.598 21.559ZM11.123 21.861H11.133L11.141 21.863C11.202 21.869 11.248 21.923 11.242 21.984L11.162 22.904C11.1595 22.9336 11.1453 22.9609 11.1226 22.98C11.0999 22.9992 11.0706 23.0085 11.041 23.006H11.033C11.0184 23.0048 11.0043 23.0006 10.9913 22.9938C10.9784 22.987 10.9669 22.9777 10.9576 22.9665C10.9483 22.9552 10.9413 22.9422 10.9371 22.9282C10.9329 22.9142 10.9315 22.8995 10.933 22.885L11.013 21.963C11.0153 21.9353 11.0278 21.9095 11.0482 21.8906C11.0685 21.8717 11.0952 21.8612 11.123 21.861ZM12.859 21.861H12.879C12.9063 21.8617 12.9324 21.8725 12.9522 21.8913C12.972 21.9102 12.984 21.9357 12.986 21.963L13.066 22.887C13.0672 22.9015 13.0656 22.916 13.0612 22.9298C13.0568 22.9436 13.0496 22.9565 13.0403 22.9675C13.0309 22.9786 13.0194 22.9877 13.0065 22.9943C12.9936 23.0009 12.9795 23.0049 12.965 23.006L12.957 23.008C12.9424 23.0094 12.9276 23.0078 12.9137 23.0034C12.8997 22.999 12.8867 22.9918 12.8755 22.9823C12.8643 22.9728 12.8552 22.9611 12.8485 22.948C12.8419 22.9349 12.838 22.9206 12.837 22.906L12.757 21.982C12.7548 21.9526 12.7643 21.9235 12.7833 21.901C12.8024 21.8786 12.8296 21.8635 12.859 21.861Z"
            fill="#F9F9F9"
        />
    </g>
    <defs>
        <clipPath id="clip0_1_11">
            <rect width="24" height="24" fill="white" />
        </clipPath>
    </defs>
</svg>