<svg width="24" height="24" viewBox="0 0 24 24" xmlns="http://www.w3.org/2000/svg">
    <g clip-path="url(#clip0_1_4)">
        <path
            d="M12 2.70888e-07C8.21002 2.70888e-07 4.83101 1.757 2.63201 4.501L6.58501 11.349C6.74399 10.0246 7.38281 8.80438 8.38063 7.91914C9.37846 7.0339 10.6661 6.54503 12 6.545H22.691C21.6854 4.57463 20.1547 2.92058 18.2681 1.76557C16.3814 0.610552 14.2122 -0.000469684 12 2.70888e-07ZM1.93101 5.47C0.667305 7.41316 -0.00363874 9.68207 1.48424e-05 12C1.48424e-05 18.012 4.42002 22.991 10.189 23.864L14.142 17.017C12.9157 17.5414 11.5397 17.5979 10.2746 17.1759C9.0094 16.7539 7.9429 15.8826 7.27701 14.727L1.93101 5.47ZM15.273 7.636C16.3411 8.43513 17.0787 9.59846 17.3459 10.9053C17.6132 12.2122 17.3916 13.5717 16.723 14.726L16.725 14.727H16.723L11.379 23.984C11.585 23.994 11.792 24 12 24C18.627 24 24 18.627 24 12C24 10.46 23.71 8.989 23.182 7.636H15.273ZM12 16.364C10.8426 16.364 9.73261 15.9042 8.9142 15.0858C8.09579 14.2674 7.63601 13.1574 7.63601 12C7.63601 10.8426 8.09579 9.7326 8.9142 8.91419C9.73261 8.09578 10.8426 7.636 12 7.636C13.1574 7.636 14.2674 8.09578 15.0858 8.91419C15.9042 9.7326 16.364 10.8426 16.364 12C16.364 13.1574 15.9042 14.2674 15.0858 15.0858C14.2674 15.9042 13.1574 16.364 12 16.364Z"
            fill="current"
        />
    </g>
    <defs>
        <clipPath id="clip0_1_4">
            <rect width="24" height="24" fill="current" />
        </clipPath>
    </defs>
</svg>