<svg width="24" height="24" viewBox="0 0 24 24" xmlns="http://www.w3.org/2000/svg">
    <g clip-path="url(#clip0_1_9)">
        <path
            d="M20.452 3.445C19.7198 2.69394 18.8841 2.05144 17.97 1.537C16.944 0.997 15.098 0.093 12.477 0.032C11.743 0.015 11.02 0.062 10.303 0.176C9.583 0.29 8.905 0.468 8.185 0.736C7.168 1.113 6.189 1.711 5.611 2.29C6.194 1.941 7.087 1.557 8.161 1.298C9.38277 1.01073 10.6474 0.954096 11.89 1.131C14.231 1.471 16.068 2.512 17.37 3.756C17.8684 4.22764 18.3046 4.76094 18.668 5.343C20.136 7.725 19.998 10.719 18.852 12.485C18.002 13.797 16.182 15.029 14.482 15.015C13.899 14.992 13.044 14.863 12.232 14.449C9.603 13.106 9.211 9.761 11.114 8.143C10.482 8.007 9.294 8.273 8.468 9.506C7.726 10.613 7.768 12.322 8.226 13.534C7.93309 12.9364 7.73408 12.2972 7.636 11.639C7.44508 10.3428 7.58827 9.01935 8.052 7.794C8.37886 6.92219 8.8516 6.11231 9.45 5.399C10.346 4.33 11.358 3.679 12.2 3.394C11.66 2.923 10.789 2.656 9.779 2.627C8.31 2.583 6.327 3.061 4.7 4.41C3.892 5.07989 3.22104 5.89958 2.724 6.824C2.269 7.66 2.033 8.483 2.027 8.502C2.149 7.057 2.731 5.508 3.275 4.447C2.485 4.86 1.448 6.115 0.865 7.489C0.0950001 9.37 -0.2 11.608 0.14 13.989C1.106 19.657 6.04 23.971 11.983 23.971C18.62 23.971 24 18.591 24 11.956C24.0029 10.3729 23.6907 8.80507 23.0815 7.34386C22.4724 5.88264 21.5785 4.55728 20.452 3.445Z"
            fill="#F9F9F9"
        />
    </g>
    <defs>
        <clipPath id="clip0_1_9">
            <rect width="24" height="24" fill="current" />
        </clipPath>
    </defs>
</svg>