<svg width="18" height="19" viewBox="0 0 18 19" fill="none" xmlns="http://www.w3.org/2000/svg">
<path fill-rule="evenodd" clip-rule="evenodd" d="M10.9929 2.74049C11.4443 2.5248 12.0181 2.77409 12.1938 3.24288C12.4181 3.84105 12.7856 4.59534 13.346 5.15641C13.9064 5.71748 14.6599 6.08533 15.2574 6.30986C15.7257 6.48583 15.9747 7.06022 15.7592 7.51212C15.4688 8.12121 15.1542 8.91609 15.1542 9.50098C15.1542 10.114 15.4998 10.9577 15.8009 11.5764C16.0075 12.0009 15.8026 12.5381 15.3705 12.7276C14.7575 12.9965 13.9424 13.4295 13.346 14.0266C12.8041 14.5691 12.4426 15.2471 12.2166 15.7899C12.0266 16.246 11.4588 16.4851 11.0136 16.2714C10.4026 15.978 9.59718 15.6558 9.00629 15.6558C8.39574 15.6558 7.5564 15.9996 6.93898 16.3003C6.51303 16.5078 5.95664 16.3052 5.74932 15.8788C5.47889 15.3227 5.0577 14.5992 4.48575 14.0266C3.90295 13.4431 3.16361 13.0164 2.60409 12.7463C2.18727 12.5452 1.99536 12.0183 2.199 11.6023C2.50298 10.9814 2.85836 10.1226 2.85836 9.50098C2.85836 8.90942 2.53654 8.10308 2.24345 7.49138C2.02993 7.04576 2.26876 6.47732 2.72442 6.28711C3.26661 6.06078 3.94385 5.69892 4.48575 5.15641C5.0822 4.5593 5.5147 3.74334 5.78324 3.12962C5.97253 2.69704 6.50914 2.49192 6.93323 2.69876C7.55123 3.00019 8.39396 3.34617 9.00629 3.34617C9.59053 3.34617 10.3845 3.0312 10.9929 2.74049ZM12.0944 7.11734C11.896 6.91055 11.5744 6.91055 11.376 7.11734L7.92161 10.7256L6.60082 9.34886C6.40243 9.14207 6.08079 9.14207 5.8824 9.34886C5.68402 9.55565 5.68402 9.89093 5.8824 10.0977L7.60237 11.8906C7.70878 11.9965 7.98257 12.1447 8.2264 11.8906L12.0944 7.85867C12.2928 7.65188 12.2928 7.32413 12.0944 7.11734Z" fill="#4B91CA"/>
</svg>
