<svg xmlns="http://www.w3.org/2000/svg" version="1.1" xmlns:xlink="http://www.w3.org/1999/xlink" xmlns:svgjs="http://svgjs.dev/svgjs" width="1000" height="1000"><g clip-path="url(#SvgjsClipPath1680)"><rect width="1000" height="1000" fill="#1E1E1"></rect><g transform="matrix(14.285714285714286,0,0,14.285714285714286,200,200)"><svg xmlns="http://www.w3.org/2000/svg" version="1.1" xmlns:xlink="http://www.w3.org/1999/xlink" xmlns:svgjs="http://svgjs.dev/svgjs" width="42" height="42"><svg width="42" height="42" viewBox="0 0 42 42" fill="none" xmlns="http://www.w3.org/2000/svg">
<path d="M0 42V4.66667C0 2.08934 2.08934 0 4.66667 0H37.3333C39.9107 0 42 2.08934 42 4.66667V28C42 30.5773 39.9107 32.6667 37.3333 32.6667H14C12.99 32.6648 12.0069 32.9925 11.2 33.6L0 42ZM4.66667 4.66667V32.6667L9.646 28.9333C10.4525 28.3251 11.4358 27.9973 12.446 28H37.3333V4.66667H4.66667Z" fill="#F2F2F2"></path>
<path d="M24.4144 12.3438C24.3349 11.5994 23.9996 11.0199 23.4087 10.6051C22.8235 10.1903 22.0621 9.98295 21.1246 9.98295C20.4656 9.98295 19.9002 10.0824 19.4286 10.2812C18.957 10.4801 18.5962 10.75 18.3462 11.0909C18.0962 11.4318 17.9684 11.821 17.9627 12.2585C17.9627 12.6222 18.0451 12.9375 18.2099 13.2045C18.3803 13.4716 18.6104 13.6989 18.9002 13.8864C19.19 14.0682 19.511 14.2216 19.8633 14.3466C20.2156 14.4716 20.5707 14.5767 20.9286 14.6619L22.565 15.071C23.2241 15.2244 23.8576 15.4318 24.4656 15.6932C25.0792 15.9545 25.6275 16.2841 26.1104 16.6818C26.5991 17.0795 26.9854 17.5597 27.2695 18.1222C27.5536 18.6847 27.6957 19.3437 27.6957 20.0994C27.6957 21.1222 27.4343 22.0227 26.9116 22.8011C26.3889 23.5739 25.6332 24.179 24.6445 24.6165C23.6616 25.0483 22.4712 25.2642 21.0735 25.2642C19.7156 25.2642 18.5366 25.054 17.5366 24.6335C16.5423 24.2131 15.7638 23.5994 15.2013 22.7926C14.6445 21.9858 14.3434 21.0028 14.2979 19.8438H17.4087C17.4542 20.4517 17.6417 20.9574 17.9712 21.3608C18.3008 21.7642 18.7298 22.0653 19.2582 22.2642C19.7923 22.4631 20.3888 22.5625 21.0479 22.5625C21.7354 22.5625 22.3377 22.4602 22.8548 22.2557C23.3775 22.0455 23.7866 21.7557 24.082 21.3864C24.3775 21.0114 24.5281 20.5739 24.5337 20.0739C24.5281 19.6193 24.3945 19.2443 24.1332 18.9489C23.8718 18.6477 23.5053 18.3977 23.0337 18.1989C22.5678 17.9943 22.0224 17.8125 21.3974 17.6534L19.4116 17.142C17.9741 16.7727 16.8377 16.2131 16.0025 15.4631C15.1729 14.7074 14.7582 13.7045 14.7582 12.4545C14.7582 11.4261 15.0366 10.5256 15.5934 9.75284C16.1559 8.98011 16.9201 8.38068 17.886 7.95454C18.8519 7.52273 19.9457 7.30682 21.1673 7.30682C22.4059 7.30682 23.4911 7.52273 24.4229 7.95454C25.3604 8.38068 26.0962 8.97443 26.6303 9.73579C27.1644 10.4915 27.44 11.3608 27.457 12.3438H24.4144Z" fill="#F2F2F2"></path>
</svg></svg></g></g><defs><clipPath id="SvgjsClipPath1680"><rect width="1000" height="1000" x="0" y="0" rx="350" ry="350"></rect></clipPath></defs></svg>